<svg id="Layer_1" data-name="Layer 1" xmlns="http://www.w3.org/2000/svg" viewBox="0 0 249.96 40"><defs><style>.cls-1{fill:#e8e8e8;}.cls-2{opacity:0.5;isolation:isolate;font-size:15.1px;font-family:Arial-BoldMT, Arial;font-weight:700;}.cls-3{fill:#4285f4;}.cls-4{fill:#34a853;}.cls-5{fill:#fbbc05;}.cls-6{fill:#ea4335;}.cls-7{fill:none;}</style></defs><title>Google-login-btn-r7</title><g id="svg_82" data-name="svg 82"><path id="svg_83" data-name="svg 83" class="cls-1" d="M5.5,0h239c3,0,5.48,2,5.48,4.57V35.43C250,38,247.5,40,244.5,40H5.5C2.5,40,0,38,0,35.43V4.57C0,2,2.5,0,5.5,0Z" transform="translate(-0.02)"/><text class="cls-2" transform="translate(43.73 25.71) scale(1.2 1)">Continue with Google</text><g id="logo_googleg_48dp" data-name="logo googleg 48dp"><path id="Shape" class="cls-3" d="M28.94,20.2a10.34,10.34,0,0,0-.16-1.84H20.3v3.48h4.84a4.14,4.14,0,0,1-1.8,2.72v2.26h2.91a8.78,8.78,0,0,0,2.68-6.62Z" transform="translate(-0.02)"/><path id="Shape-2" data-name="Shape" class="cls-4" d="M20.3,29a8.59,8.59,0,0,0,6-2.18l-2.91-2.26a5.43,5.43,0,0,1-8.08-2.85h-3V24a9,9,0,0,0,8,5Z" transform="translate(-0.02)"/><path id="Shape-3" data-name="Shape" class="cls-5" d="M15.26,21.71a5.32,5.32,0,0,1,0-3.42V16h-3a9,9,0,0,0,0,8.08l3-2.33Z" transform="translate(-0.02)"/><path id="Shape-4" data-name="Shape" class="cls-6" d="M20.3,14.58a4.86,4.86,0,0,1,3.44,1.35l2.58-2.58a8.65,8.65,0,0,0-6-2.34,9,9,0,0,0-8,5l3,2.33a5.36,5.36,0,0,1,5-3.71Z" transform="translate(-0.02)"/><path id="Shape-5" data-name="Shape" class="cls-7" d="M11.3,11h18V29h-18Z" transform="translate(-0.02)"/></g></g></svg>