<svg xmlns="http://www.w3.org/2000/svg" viewBox="0 0 512 512" enable-background="new 0 0 512 512"><path d="M178.532 506.435c-4.007 0-7.791-.445-11.576-1.336-19.256-4.563-34.393-20.146-37.843-40.403l-23.04-136.348h100.953l20.146 120.654c5.009 30.052-18.142 57.433-48.64 57.433z" fill="#50667F"/><path d="M445.217 65.224v314.769c0 11.464-11.242 19.59-22.15 15.805-65.781-22.595-107.186-39.29-189.329-49.976l-11.13-23.04v-200.347l11.13-23.04c81.92-10.685 122.546-27.047 189.329-49.976 10.909-3.784 22.15 4.341 22.15 15.805z" fill="#E6EEFF"/><path d="M445.217 222.609v157.384c0 11.464-11.242 19.59-22.15 15.805-65.781-22.595-107.186-39.29-189.329-49.976l-11.13-23.04v-100.173h222.609z" fill="#DAE2F2"/><path d="M83.478 306.087c-46.032 0-83.478-37.446-83.478-83.478s37.446-83.478 83.478-83.478c9.217 0 16.696 7.473 16.696 16.696v133.565c0 9.222-7.479 16.695-16.696 16.695z" fill="#C4CAD9"/><path d="M0 222.609c0 46.032 37.446 83.478 83.478 83.478 9.217 0 16.696-7.473 16.696-16.696v-66.783h-100.174z" fill="#B8BFCC"/><path d="M461.913 5.565c-27.603 0-50.087 22.483-50.087 50.087v333.913c0 27.603 22.483 50.087 50.087 50.087s50.087-22.483 50.087-50.087v-333.913c0-27.603-22.484-50.087-50.087-50.087z" fill="#50B9FF"/><path d="M512 222.609v166.956c0 27.603-22.483 50.087-50.087 50.087s-50.087-22.483-50.087-50.087v-166.956h100.174z" fill="#48A7E6"/><path d="M233.739 99.395v246.428c-53.871-7.012-87.485-6.344-116.87-6.344-27.603 0-50.087-22.483-50.087-50.087v-133.566c0-27.603 22.483-50.087 50.087-50.087 28.94 0 62.888.668 116.87-6.344z" fill="#50B9FF"/><path d="M233.739 222.609v123.214c-53.871-7.012-87.485-6.344-116.87-6.344-27.603 0-50.087-22.483-50.087-50.087v-66.783h166.957z" fill="#48A7E6"/></svg>